<svg xmlns="http://www.w3.org/2000/svg" viewBox="0 0 68 85" x="0px" y="0px"><path fill="#ffffff" fill-rule="evenodd" d="M340,219 L340,211 C340,210.447715 340.447715,210 341,210 L343,210 C343.552285,210 344,210.447715 344,211 L344,219 C344,219.552285 343.552285,220 343,220 L341,220 C340.447715,220 340,219.552285 340,219 L340,219 Z M312,231.774852 L312,240 L328,240 L328,233.108185 L323.581139,234.581139 C323.057196,234.755787 322.490876,234.472627 322.316228,233.948683 L321.683772,232.051317 C321.509124,231.527373 321.792284,230.961053 322.316228,230.786406 L335.418861,226.418861 C335.942804,226.244213 336.509124,226.527373 336.683772,227.051317 L337.316228,228.948683 C337.490876,229.472627 337.207716,230.038947 336.683772,230.213594 L332,231.774852 L332,240 L348,240 L348,233.108185 L343.581139,234.581139 C343.057196,234.755787 342.490876,234.472627 342.316228,233.948683 L341.683772,232.051317 C341.509124,231.527373 341.792284,230.961053 342.316228,230.786406 L355.418861,226.418861 C355.942804,226.244213 356.509124,226.527373 356.683772,227.051317 L357.316228,228.948683 C357.490876,229.472627 357.207716,230.038947 356.683772,230.213594 L352,231.774852 L352,240 L363,240 L363,240 C363.552285,240 364,240.447715 364,241 L364,243 C364,243.552285 363.552285,244 363,244 L297,244 C296.447715,244 296,243.552285 296,243 L296,241 L296,241 C296,240.447715 296.447715,240 297,240 L308,240 L308,233.108185 L303.581139,234.581139 C303.057196,234.755787 302.490876,234.472627 302.316228,233.948683 L301.683772,232.051317 C301.509124,231.527373 301.792284,230.961053 302.316228,230.786406 L315.418861,226.418861 C315.942804,226.244213 316.509124,226.527373 316.683772,227.051317 L317.316228,228.948683 C317.490876,229.472627 317.207716,230.038947 316.683772,230.213594 L312,231.774852 Z M344,177 L344,185 C344,185.552285 343.552285,186 343,186 L341,186 C340.447715,186 340,185.552285 340,185 L340,177 L340,177 C340,176.447715 340.447715,176 341,176 L343,176 L343,176 C343.552285,176 344,176.447715 344,177 L344,177 Z M358.263456,184.564971 L352.606602,190.221825 C352.216077,190.61235 351.582912,190.61235 351.192388,190.221825 L349.778175,188.807612 C349.38765,188.417088 349.38765,187.783923 349.778175,187.393398 L355.435029,181.736544 C355.825553,181.34602 356.458718,181.34602 356.849242,181.736544 L358.263456,183.150758 C358.65398,183.541282 358.65398,184.174447 358.263456,184.564971 Z M363,200 L355,200 C354.447715,200 354,199.552285 354,199 L354,197 C354,196.447715 354.447715,196 355,196 L363,196 C363.552285,196 364,196.447715 364,197 L364,199 C364,199.552285 363.552285,200 363,200 Z M355.435029,214.263456 L349.778175,208.606602 C349.38765,208.216077 349.38765,207.582912 349.778175,207.192388 L351.192388,205.778175 C351.582912,205.38765 352.216077,205.38765 352.606602,205.778175 L358.263456,211.435029 C358.65398,211.825553 358.65398,212.458718 358.263456,212.849242 L356.849242,214.263456 C356.458718,214.65398 355.825553,214.65398 355.435029,214.263456 Z M325.736544,211.435029 L331.393398,205.778175 C331.783923,205.38765 332.417088,205.38765 332.807612,205.778175 L334.221825,207.192388 C334.61235,207.582912 334.61235,208.216077 334.221825,208.606602 L328.564971,214.263456 C328.174447,214.65398 327.541282,214.65398 327.150758,214.263456 L325.736544,212.849242 C325.34602,212.458718 325.34602,211.825553 325.736544,211.435029 Z M321,196 L329,196 C329.552285,196 330,196.447715 330,197 L330,199 C330,199.552285 329.552285,200 329,200 L321,200 C320.447715,200 320,199.552285 320,199 L320,197 C320,196.447715 320.447715,196 321,196 Z M328.564971,181.736544 L334.221825,187.393398 C334.61235,187.783923 334.61235,188.417088 334.221825,188.807612 L332.807612,190.221825 C332.417088,190.61235 331.783923,190.61235 331.393398,190.221825 L325.736544,184.564971 C325.34602,184.174447 325.34602,183.541282 325.736544,183.150758 L327.150758,181.736544 C327.541282,181.34602 328.174447,181.34602 328.564971,181.736544 Z M342,206 C337.581722,206 334,202.418278 334,198 C334,193.581722 337.581722,190 342,190 C346.418278,190 350,193.581722 350,198 C350,202.418278 346.418278,206 342,206 Z" transform="translate(-296 -176)"/></svg>